<svg width="56" height="42" viewBox="0 0 56 42" fill="none" xmlns="http://www.w3.org/2000/svg">
<path d="M55.9995 4.78895C55.9995 2.24391 53.8758 0.142874 51.1648 0.00698604C48.4538 -0.1294 46.1028 1.74665 45.8129 4.27775C45.5235 6.80835 47.3961 9.10949 50.0763 9.51566V18.87C49.2252 18.551 48.3285 18.3514 47.4152 18.2777V17.4644C47.4121 14.9323 45.223 12.88 42.5221 12.877H33.5847V9.82776C33.5831 8.70232 32.6105 7.79043 31.41 7.78894H24.4658V4.81583C24.4658 4.39323 24.1005 4.05127 23.6503 4.05127C23.2 4.05127 22.8348 4.39323 22.8348 4.81583V7.78894H16.0052C14.8048 7.79043 13.8321 8.70232 13.8305 9.82776V12.877H4.89316C2.19226 12.88 0.00318565 14.9323 0 17.4644V36.6455C0.00318565 39.1776 2.19226 41.2298 4.89316 41.2328H42.5221C45.223 41.2298 47.4121 39.1776 47.4152 36.6455V35.8321C51.4143 35.5076 54.7518 32.8366 55.7213 29.1846C56.6908 25.5325 55.0778 21.7068 51.7074 19.663V9.51566C54.1795 9.13786 55.9963 7.13737 55.9995 4.78895V4.78895ZM15.4616 9.82776C15.4621 9.54652 15.7053 9.31855 16.0052 9.31805H31.41C31.71 9.31805 31.9537 9.54602 31.9537 9.82776V12.877H15.4616V9.82776ZM45.7842 36.6455C45.7821 38.3339 44.3225 39.7017 42.5221 39.7037H4.89316C3.09221 39.7017 1.63318 38.3339 1.63105 36.6455V17.4644C1.63318 15.776 3.09221 14.4081 4.89316 14.4061H42.5221C44.3225 14.4081 45.7821 15.776 45.7842 17.4644V36.6455ZM54.3685 27.0547C54.3637 30.7799 51.366 33.9028 47.4152 34.2985V19.8113C51.3655 20.207 54.3637 23.3299 54.3685 27.0547V27.0547ZM47.4152 4.78895C47.4152 2.98906 48.9714 1.52963 50.8919 1.52963C52.8117 1.52963 54.3685 2.98906 54.3685 4.78895C54.3685 6.58934 52.8117 8.04827 50.8919 8.04827C48.9725 8.04628 47.4174 6.58835 47.4152 4.78895Z" fill="#0060FE"/>
<path d="M11.3839 22.4673C9.43326 22.4698 7.85211 23.9516 7.84999 25.7804V27.9043C7.84999 28.3269 8.21528 28.6689 8.66552 28.6689H14.1024C14.5526 28.6689 14.9179 28.3269 14.9179 27.9043V25.7804C14.9158 23.9516 13.3346 22.4698 11.3839 22.4673ZM13.2868 27.1397H9.48105V25.7804C9.48105 24.7953 10.3332 23.9964 11.3839 23.9964C12.4347 23.9964 13.2868 24.7953 13.2868 25.7804V27.1397Z" fill="#0060FE"/>
<path d="M36.0313 22.4673C34.0801 22.4698 32.4994 23.9516 32.4973 25.7804V27.9043C32.4973 28.3269 32.8621 28.6689 33.3128 28.6689H38.7497C39.1999 28.6689 39.5652 28.3269 39.5652 27.9043V25.7804C39.5626 23.9516 37.982 22.4698 36.0313 22.4673ZM37.9342 27.1397H34.1284V25.7804C34.1284 24.7953 34.98 23.9964 36.0313 23.9964C37.082 23.9964 37.9342 24.7953 37.9342 25.7804V27.1397Z" fill="#0060FE"/>
<path d="M29.1445 31.2084H18.2708C17.82 31.2084 17.4552 31.5509 17.4552 31.973C17.4552 35.2104 20.2544 37.8346 23.7076 37.8346C27.1603 37.8346 29.96 35.2104 29.96 31.973C29.96 31.5509 29.5947 31.2084 29.1445 31.2084ZM23.7076 36.3055C21.4708 36.303 19.5562 34.8013 19.158 32.7375H28.2567C27.8591 34.8013 25.9445 36.303 23.7076 36.3055Z" fill="#0060FE"/>
</svg>
