<svg width="48" height="48" viewBox="0 0 48 48" fill="none" xmlns="http://www.w3.org/2000/svg">
<rect width="48" height="48" rx="24" fill="white"/>
<g clip-path="url(#clip0)">
<path d="M24 8C15.1635 8 8 15.1635 8 24C8 32.8365 15.1635 40 24 40C24.482 40 24.9622 39.9784 25.4401 39.9354C25.8844 39.8956 26.3247 39.8346 26.7617 39.7583L26.9297 39.7286C35.0539 38.2125 40.687 30.7586 39.9271 22.5289C39.1672 14.2992 32.2646 8.0026 24 8V8ZM22.7146 38.8768H22.6768C22.262 38.8401 21.8503 38.7846 21.4422 38.7135C21.4187 38.7094 21.3953 38.7068 21.3724 38.7023C20.9734 38.631 20.5786 38.5424 20.1878 38.4391L20.0932 38.4148C19.712 38.3115 19.3349 38.1914 18.9633 38.0581C18.9247 38.0443 18.8859 38.032 18.8474 38.0177C18.4831 37.8839 18.1253 37.7339 17.7729 37.5716C17.7292 37.5521 17.6854 37.5333 17.6417 37.5125C17.2961 37.3526 16.9573 37.1724 16.625 36.9828C16.5781 36.9563 16.5307 36.9297 16.4839 36.9034C16.1568 36.7125 15.8372 36.5078 15.5237 36.2917C15.4763 36.2586 15.4284 36.2266 15.3812 36.1935C15.0732 35.975 14.7729 35.743 14.4805 35.5003L14.4 35.4299V30.9333C14.4039 27.6948 17.0281 25.0706 20.2667 25.0667H27.7333C30.9719 25.0706 33.5961 27.6948 33.6 30.9333V35.4305L33.5292 35.4896C33.231 35.7385 32.925 35.974 32.6107 36.1964C32.569 36.2255 32.5268 36.2534 32.4854 36.282C32.1682 36.5023 31.8432 36.7096 31.5104 36.9044C31.4687 36.9286 31.426 36.9516 31.3846 36.9755C31.0474 37.1674 30.7044 37.3487 30.3547 37.512C30.3146 37.5307 30.2742 37.5482 30.2336 37.5654C29.8784 37.7292 29.5174 37.8799 29.1505 38.0148C29.1141 38.0284 29.0773 38.0401 29.0437 38.0529C28.6703 38.1867 28.2917 38.3078 27.9083 38.4117L27.8164 38.4346C27.425 38.538 27.0299 38.6271 26.6305 38.6987C26.6076 38.7029 26.5846 38.7057 26.5617 38.7094C26.1531 38.7807 25.7409 38.8362 25.3258 38.8732H25.288C24.8615 38.9099 24.4346 38.9297 24.0026 38.9297C23.5706 38.9297 23.1404 38.9135 22.7146 38.8768V38.8768ZM34.6667 34.4417V30.9333C34.6622 27.106 31.5607 24.0044 27.7333 24H20.2667C16.4393 24.0044 13.3378 27.106 13.3333 30.9333V34.4411C7.58906 28.5784 7.65313 19.1786 13.4766 13.3945C19.3 7.61068 28.7 7.61068 34.5234 13.3945C40.3469 19.1786 40.4109 28.5784 34.6667 34.4411V34.4417Z" fill="black" fill-opacity="0.56"/>
<path d="M24 12.2667C21.0544 12.2667 18.6667 14.6544 18.6667 17.6C18.6667 20.5456 21.0544 22.9333 24 22.9333C26.9456 22.9333 29.3333 20.5456 29.3333 17.6C29.3302 14.6557 26.9443 12.2698 24 12.2667ZM24 21.8667C21.6435 21.8667 19.7333 19.9565 19.7333 17.6C19.7333 15.2435 21.6435 13.3333 24 13.3333C26.3565 13.3333 28.2667 15.2435 28.2667 17.6C28.2641 19.9552 26.3552 21.8641 24 21.8667Z" fill="black" fill-opacity="0.56"/>
</g>
<defs>
<clipPath id="clip0">
<rect x="8" y="8" width="32" height="32" fill="white"/>
</clipPath>
</defs>
</svg>
