<svg width="34" height="50" viewBox="0 0 34 50" fill="none" xmlns="http://www.w3.org/2000/svg">
<path d="M32.8646 32.2709C32.4618 31.8681 31.8092 31.8681 31.4064 32.2709L17.698 45.9792V1.03128C17.698 0.461259 17.2367 0 16.6667 0C16.0967 0 15.6354 0.461259 15.6354 1.03128V45.9793L1.92712 32.2709C1.52425 31.8681 0.871664 31.8681 0.468896 32.2709C0.0660319 32.6738 0.0660319 33.3264 0.468896 33.7291L15.9377 49.1979C16.139 49.3993 16.403 49.5 16.6668 49.5C16.9307 49.5 17.1945 49.3993 17.396 49.1979L32.8647 33.7291C33.2674 33.3263 33.2674 32.6737 32.8646 32.2709Z" fill="#0060FE"/>
</svg>
