<svg width="48" height="48" viewBox="0 0 48 48" fill="none" xmlns="http://www.w3.org/2000/svg">
<rect width="48" height="48" rx="24" fill="white"/>
<path d="M39.9997 14.7365C39.9997 13.2822 38.7861 12.0816 37.237 12.004C35.6879 11.9261 34.3444 12.9981 34.1788 14.4444C34.0134 15.8905 35.0835 17.2054 36.615 17.4375V22.7829C36.1287 22.6006 35.6163 22.4865 35.0944 22.4444V21.9796C35.0926 20.5327 33.8417 19.36 32.2983 19.3583H27.1913V17.6159C27.1904 16.9728 26.6345 16.4517 25.9486 16.4508H21.9805V14.7519C21.9805 14.5104 21.7717 14.315 21.5144 14.315C21.2572 14.315 21.0484 14.5104 21.0484 14.7519V16.4508H17.1459C16.4599 16.4517 15.9041 16.9728 15.9031 17.6159V19.3583H10.7961C9.25272 19.36 8.00182 20.5327 8 21.9796V32.9403C8.00182 34.3872 9.25272 35.5599 10.7961 35.5616H32.2983C33.8417 35.5599 35.0926 34.3872 35.0944 32.9403V32.4755C37.3796 32.2901 39.2867 30.7638 39.8407 28.6769C40.3947 26.59 39.473 24.4039 37.5471 23.236V17.4375C38.9597 17.2216 39.9979 16.0785 39.9997 14.7365V14.7365ZM16.8352 17.6159C16.8355 17.4552 16.9744 17.3249 17.1459 17.3246H25.9486C26.12 17.3246 26.2592 17.4549 26.2592 17.6159V19.3583H16.8352V17.6159ZM34.1624 32.9403C34.1612 33.9051 33.3272 34.6867 32.2983 34.6878H10.7961C9.76698 34.6867 8.93324 33.9051 8.93203 32.9403V21.9796C8.93324 21.0148 9.76698 20.2332 10.7961 20.2321H32.2983C33.3272 20.2332 34.1612 21.0148 34.1624 21.9796V32.9403ZM39.0677 27.4598C39.065 29.5885 37.352 31.373 35.0944 31.5992V23.3207C37.3517 23.5469 39.065 25.3314 39.0677 27.4598V27.4598ZM35.0944 14.7365C35.0944 13.708 35.9837 12.8741 37.0811 12.8741C38.1781 12.8741 39.0677 13.708 39.0677 14.7365C39.0677 15.7653 38.1781 16.599 37.0811 16.599C35.9843 16.5979 35.0956 15.7648 35.0944 14.7365Z" fill="#0060FE"/>
<path d="M14.5051 24.8384C13.3904 24.8399 12.4869 25.6866 12.4857 26.7316V27.9453C12.4857 28.1868 12.6944 28.3822 12.9517 28.3822H16.0584C16.3157 28.3822 16.5245 28.1868 16.5245 27.9453V26.7316C16.5232 25.6866 15.6197 24.8399 14.5051 24.8384ZM15.5924 27.5084H13.4177V26.7316C13.4177 26.1687 13.9046 25.7122 14.5051 25.7122C15.1055 25.7122 15.5924 26.1687 15.5924 26.7316V27.5084Z" fill="#0060FE"/>
<path d="M28.5893 24.8384C27.4744 24.8399 26.5712 25.6866 26.5699 26.7316V27.9453C26.5699 28.1868 26.7784 28.3822 27.036 28.3822H30.1427C30.4 28.3822 30.6087 28.1868 30.6087 27.9453V26.7316C30.6072 25.6866 29.704 24.8399 28.5893 24.8384ZM29.6767 27.5084H27.502V26.7316C27.502 26.1687 27.9886 25.7122 28.5893 25.7122C29.1898 25.7122 29.6767 26.1687 29.6767 26.7316V27.5084Z" fill="#0060FE"/>
<path d="M24.654 29.8333H18.4404C18.1829 29.8333 17.9744 30.029 17.9744 30.2702C17.9744 32.1202 19.5739 33.6197 21.5472 33.6197C23.5202 33.6197 25.12 32.1202 25.12 30.2702C25.12 30.029 24.9113 29.8333 24.654 29.8333ZM21.5472 32.7459C20.269 32.7445 19.175 31.8864 18.9474 30.7071H24.1467C23.9195 31.8864 22.8254 32.7445 21.5472 32.7459Z" fill="#0060FE"/>
</svg>
