<svg width="599" height="530" viewBox="0 0 599 530" fill="none" xmlns="http://www.w3.org/2000/svg">
<path d="M596.267 -147.254C643.781 -130.66 677.254 -78.1813 692.43 -23.5755C707.748 30.8885 704.912 87.6218 708.457 153.574C712.003 219.527 722.073 294.84 695.125 353.276C668.035 411.853 604.21 453.41 535.563 468.586C467.057 483.762 393.871 472.416 342.953 434.83C292.035 397.244 263.384 333.561 213.175 283.919C163.108 234.136 91.4825 198.535 61.272 142.653C31.2033 86.7708 42.55 10.7481 77.8665 -49.2473C113.183 -109.243 172.327 -153.353 234.167 -163.281C296.148 -173.352 360.824 -149.24 423.94 -146.971C487.056 -144.559 548.753 -163.849 596.267 -147.254Z" fill="#0060FE" fill-opacity="0.3"/>
</svg>
