<svg width="887" height="656" viewBox="0 0 887 656" fill="none" xmlns="http://www.w3.org/2000/svg">
<g clip-path="url(#clip0)">
<path d="M728.747 655.061C808.508 655.061 873.168 646.67 873.168 636.32C873.168 625.969 808.508 617.578 728.747 617.578C648.985 617.578 584.326 625.969 584.326 636.32C584.326 646.67 648.985 655.061 728.747 655.061Z" fill="#E6E6E6"/>
<path d="M736.713 571.065C736.713 571.065 744.473 597.795 749.647 604.693C754.82 611.591 759.132 622.8 756.545 624.525C753.958 626.249 748.784 646.943 755.682 647.806C762.581 648.668 778.101 625.387 778.964 617.627C779.826 609.866 783.275 582.274 783.275 582.274C783.275 582.274 789.311 558.131 779.826 556.406C770.341 554.682 755.683 553.819 755.683 553.819L736.713 571.065Z" fill="#2F2E41"/>
<path d="M700.498 599.519C700.498 599.519 689.289 628.836 686.702 630.56C684.115 632.285 674.63 647.806 693.6 647.806C712.57 647.806 722.917 642.632 722.917 642.632L728.952 635.734C728.952 635.734 728.952 617.627 727.228 615.04C725.503 612.453 727.228 599.519 727.228 599.519H700.498Z" fill="#2F2E41"/>
<path d="M623.757 331.357C623.757 331.357 609.961 424.481 622.032 454.66C634.104 484.839 646.176 493.461 646.176 493.461L737.575 578.825C737.575 578.825 766.03 564.167 763.443 554.682C763.443 554.682 757.407 551.233 756.545 548.646C755.682 546.059 744.473 545.197 744.473 545.197C744.473 545.197 739.3 539.161 739.3 535.712C739.3 532.263 694.462 471.043 679.804 466.731C679.804 466.731 672.043 457.246 672.906 455.522C673.768 453.797 670.319 447.762 670.319 447.762L678.941 414.133L733.264 405.511C733.264 405.511 755.682 326.183 736.713 320.147C717.743 314.111 623.757 331.357 623.757 331.357Z" fill="#2F2E41"/>
<path d="M731.539 391.715L733.264 405.511C733.264 405.511 733.264 441.726 731.539 445.175C729.815 448.624 728.952 453.797 731.539 457.246C734.126 460.695 738.437 469.318 736.713 472.767C734.988 476.216 740.162 573.651 733.264 580.549C726.366 587.448 728.953 596.07 729.815 596.932C730.677 597.795 728.953 601.244 728.953 601.244C728.953 601.244 693.6 607.279 696.187 601.244C698.774 595.208 698.773 591.759 700.498 590.034C702.223 588.31 700.498 585.723 700.498 585.723C700.498 585.723 703.085 558.131 700.498 556.406C697.911 554.682 690.151 471.905 690.151 471.043C690.151 470.18 687.564 468.456 687.564 465.007C687.564 461.558 687.564 450.348 683.253 448.624C678.941 446.899 679.804 404.649 679.804 404.649L731.539 391.715Z" fill="#2F2E41"/>
<path d="M670.319 83.8883C670.319 83.8883 673.768 109.756 684.115 114.93C694.462 120.103 701.36 122.69 701.36 122.69L692.738 152.869L689.289 178.737H649.625L628.068 161.492L634.966 133.037L638.415 127.864C638.415 127.864 642.727 108.894 639.277 102.858C635.828 96.8222 670.319 83.8883 670.319 83.8883Z" fill="#FFB9B9"/>
<path d="M653.074 146.833L659.109 158.043C659.109 158.043 663.421 142.522 669.457 139.935C675.492 137.348 690.151 133.037 690.151 129.588C690.151 126.139 689.289 117.516 692.738 117.516C696.187 117.516 729.815 127.864 734.988 131.313C740.162 134.762 741.024 138.211 741.024 138.211L731.539 237.37C731.539 237.37 745.335 283.932 741.024 302.04C736.713 320.147 733.264 322.734 722.917 325.321C712.57 327.908 718.605 319.285 688.426 327.908C658.247 336.53 639.278 333.943 632.379 333.943C625.481 333.943 621.17 337.392 619.446 338.255C617.721 339.117 618.583 333.943 624.619 326.183C630.655 318.423 628.068 305.489 628.068 305.489C628.068 305.489 621.17 283.07 625.481 274.448C629.793 265.825 635.828 254.616 630.655 251.167C625.481 247.718 618.583 221.85 618.583 221.85L599.614 154.593L638.415 127.864C638.415 127.864 636.691 139.935 642.727 142.522C648.762 145.109 653.074 146.833 653.074 146.833Z" fill="#72A2F1"/>
<path d="M604.787 153.731H599.614C599.614 153.731 590.991 168.39 590.991 178.737C590.991 189.084 595.302 247.717 595.302 247.717L620.308 273.585L626.344 253.753L628.068 209.778L604.787 153.731Z" fill="#72A2F1"/>
<path d="M618.583 245.131C618.583 245.131 590.129 237.37 590.991 249.442C591.853 261.514 596.165 276.172 609.961 279.621C623.757 283.07 628.068 264.1 628.068 264.1C628.068 264.1 629.793 246.855 618.583 245.131Z" fill="#72A2F1"/>
<path d="M725.503 284.795C725.503 284.795 723.779 324.459 713.432 328.77L738.437 334.806C738.437 334.806 750.509 293.417 748.784 291.693C747.06 289.968 725.503 284.795 725.503 284.795Z" fill="#FFB9B9"/>
<path d="M577.608 204.058L592.416 197.589C592.969 197.348 593.596 197.336 594.158 197.556C594.719 197.776 595.171 198.211 595.412 198.764L611.875 236.448C612.17 237.124 612.185 237.889 611.916 238.575C611.647 239.262 611.116 239.813 610.441 240.108L596.556 246.174C595.881 246.469 595.115 246.483 594.429 246.214C593.743 245.945 593.191 245.415 592.896 244.739L576.434 207.055C576.314 206.781 576.25 206.486 576.244 206.187C576.238 205.888 576.291 205.591 576.4 205.313C576.509 205.035 576.672 204.781 576.879 204.566C577.087 204.35 577.334 204.178 577.608 204.058V204.058Z" fill="#2F2E41"/>
<path opacity="0.1" d="M577.608 204.058L592.416 197.589C592.969 197.348 593.596 197.336 594.158 197.556C594.719 197.776 595.171 198.211 595.412 198.764L611.875 236.448C612.17 237.124 612.185 237.889 611.916 238.575C611.647 239.262 611.116 239.813 610.441 240.108L596.556 246.174C595.881 246.469 595.115 246.483 594.429 246.214C593.743 245.945 593.191 245.415 592.896 244.739L576.434 207.055C576.314 206.781 576.25 206.486 576.244 206.187C576.238 205.888 576.291 205.591 576.4 205.313C576.509 205.035 576.672 204.781 576.879 204.566C577.087 204.35 577.334 204.178 577.608 204.058V204.058Z" fill="black"/>
<path d="M578.448 205.982L591.359 200.342C591.912 200.1 592.538 200.088 593.1 200.309C593.662 200.529 594.113 200.963 594.355 201.516L609.977 237.278C610.272 237.953 610.287 238.718 610.018 239.404C609.749 240.091 609.218 240.642 608.543 240.937L596.556 246.174C595.881 246.469 595.115 246.483 594.429 246.214C593.743 245.945 593.191 245.415 592.896 244.739L577.274 208.978C577.032 208.425 577.02 207.799 577.241 207.237C577.461 206.675 577.895 206.223 578.448 205.982V205.982Z" fill="#2F2E41"/>
<path d="M590.321 221.236C592.418 220.32 593.365 217.856 592.437 215.731C591.508 213.606 589.057 212.626 586.96 213.542C584.864 214.458 583.917 216.923 584.845 219.047C585.773 221.172 588.225 222.152 590.321 221.236Z" fill="#F2F2F2"/>
<path opacity="0.1" d="M731.97 149.851L737.575 141.66C737.575 141.66 758.269 173.563 756.545 195.12C754.82 216.676 753.096 217.538 753.096 220.987C753.096 224.436 748.784 224.436 753.096 228.748C757.407 233.059 763.443 239.095 759.994 242.544C756.545 245.993 753.958 245.993 754.82 250.304C755.372 253.436 755.66 256.609 755.682 259.789C755.682 259.789 748.353 274.016 745.766 274.016C743.18 274.016 718.605 296.866 718.605 294.279C718.605 291.693 721.192 273.585 721.192 270.998C721.192 268.412 722.054 259.789 723.779 257.202C725.503 254.616 725.503 255.478 723.779 252.891C722.054 250.304 722.054 252.891 722.054 250.304C722.054 247.717 722.917 244.268 720.33 243.406C717.743 242.544 715.156 243.406 716.881 239.095C718.605 234.784 716.881 231.335 716.019 231.335C715.156 231.335 710.845 230.472 713.432 227.886C716.019 225.299 708.258 175.288 708.258 175.288C708.258 175.288 709.552 162.785 731.97 149.851Z" fill="black"/>
<path d="M727.228 131.313L741.886 138.211C741.886 138.211 762.581 170.114 760.856 191.671C759.132 213.227 757.407 214.089 757.407 217.538C757.407 220.987 753.096 220.987 757.407 225.299C761.718 229.61 767.754 235.646 764.305 239.095C760.856 242.544 758.269 242.544 759.132 246.855C759.683 249.987 759.971 253.16 759.994 256.34C759.994 256.34 752.234 297.729 749.647 297.729C747.06 297.729 722.917 293.417 722.917 290.83C722.917 288.244 725.503 270.136 725.503 267.549C725.503 264.963 726.366 256.34 728.09 253.753C729.815 251.167 729.815 252.029 728.09 249.442C726.366 246.855 726.366 249.442 726.366 246.855C726.366 244.268 727.228 240.819 724.641 239.957C722.054 239.095 719.468 239.957 721.192 235.646C722.917 231.335 721.192 227.886 720.33 227.886C719.468 227.886 715.156 227.023 717.743 224.437C720.33 221.85 712.57 171.839 712.57 171.839C712.57 171.839 704.809 144.246 727.228 131.313Z" fill="#72A2F1"/>
<path d="M596.389 251.289C595.586 251.502 594.734 251.431 593.977 251.089C593.22 250.748 592.604 250.156 592.232 249.413C588.27 241.491 577.534 218.253 587.542 217.538C596.775 216.879 604.999 234.883 608.356 243.387C608.57 243.927 608.667 244.506 608.64 245.086C608.613 245.667 608.464 246.235 608.201 246.753C607.939 247.271 607.57 247.728 607.118 248.093C606.666 248.458 606.142 248.723 605.58 248.87L596.389 251.289Z" fill="#FFB9B9"/>
<path d="M646.176 108.032C663.795 108.032 678.079 93.7478 678.079 76.1279C678.079 58.5081 663.795 44.2244 646.176 44.2244C628.556 44.2244 614.272 58.5081 614.272 76.1279C614.272 93.7478 628.556 108.032 646.176 108.032Z" fill="#FFB9B9"/>
<path d="M634.452 57.754C630.472 59.1275 626.363 60.0975 622.188 60.6493C619.046 61.1395 615.369 61.3905 613.16 59.1022C610.993 56.8565 611.344 53.1105 612.822 50.3619C614.3 47.6133 616.668 45.4585 618.445 42.8925C621.238 38.8568 622.887 33.5067 627.355 31.4736C629.206 30.7649 631.171 30.3979 633.154 30.3905C644.746 29.6514 656.813 28.9855 667.549 33.4217C671.583 34.9586 675.157 37.5015 677.931 40.8086C679.748 43.2438 681.151 45.9626 682.081 48.8552C684.95 57.3665 685.588 66.4715 683.934 75.2998C682.28 84.1281 678.389 92.3846 672.633 99.2801C668.721 95.7549 670.422 87.6093 665.472 85.813C663.847 85.2237 662.011 85.6338 660.348 85.1673C655.119 83.7012 655.382 75.6208 651.029 72.3741C650.078 71.8625 649.236 71.1707 648.55 70.3372C648.167 69.5379 648.001 68.6521 648.068 67.7683C648.036 64.7412 649.458 57.052 646.57 54.9771C643.631 52.8651 637.277 56.7341 634.452 57.754Z" fill="#2F2E41"/>
<path d="M617.085 580.278C617.085 580.278 614.74 529.836 566.66 535.699Z" fill="#E6E6E6"/>
<path d="M819.811 462.149C819.811 462.149 822.157 411.706 870.236 417.569Z" fill="#E6E6E6"/>
<path d="M818.818 623.077C818.757 622.545 813.046 569.648 836.17 541.654C844.705 531.322 856.14 525.536 870.159 524.458L870.313 526.452C856.858 527.487 845.89 533.029 837.715 542.923C815.132 570.258 820.746 622.328 820.804 622.85L818.818 623.077Z" fill="#E6E6E6"/>
<path d="M68.348 277.893H455V404.824H440.354V438.021L407.157 404.824H68.348V277.893Z" fill="#E6E6E6"/>
<path d="M444.26 290.253H79.088V391.799H444.26V290.253Z" fill="white"/>
<path d="M284.274 319.9H108.453V325.236H284.274V319.9Z" fill="#0060FE"/>
<path d="M414.894 338.358H108.453V343.694H414.894V338.358Z" fill="#E6E6E6"/>
<path d="M414.594 356.816H108.453V362.152H414.594V356.816Z" fill="#E6E6E6"/>
<path d="M386.652 447.785H0V574.717H14.646V607.914L47.843 574.717H386.652V447.785Z" fill="#E6E6E6"/>
<path d="M375.912 460.146H10.7403V561.691H375.912V460.146Z" fill="white"/>
<path d="M218.856 490.769H43.0349V496.105H218.856V490.769Z" fill="#0060FE"/>
<path d="M349.476 509.227H43.0349V514.563H349.476V509.227Z" fill="#E6E6E6"/>
<path d="M349.176 527.685H43.0349V533.021H349.176V527.685Z" fill="#E6E6E6"/>
<path d="M386.652 108H0V234.931H14.646V268.129L47.843 234.931H386.652V108Z" fill="#E6E6E6"/>
<path d="M375.912 120.361H10.7403V221.906H375.912V120.361Z" fill="white"/>
<path d="M218.856 150.984H43.0349V156.32H218.856V150.984Z" fill="#0060FE"/>
<path d="M349.476 169.442H43.0349V174.778H349.476V169.442Z" fill="#E6E6E6"/>
<path d="M349.176 187.9H43.0349V193.236H349.176V187.9Z" fill="#E6E6E6"/>
<path d="M617.304 521.574H615.304V631.574H617.304V521.574Z" fill="#E6E6E6"/>
<path d="M819.304 410.574H817.304V631.574H819.304V410.574Z" fill="#E6E6E6"/>
<path d="M617.085 525.145C626.152 525.145 633.502 517.795 633.502 508.728C633.502 499.661 626.152 492.31 617.085 492.31C608.018 492.31 600.668 499.661 600.668 508.728C600.668 517.795 608.018 525.145 617.085 525.145Z" fill="#0060FE"/>
<path d="M819.811 411.706C828.878 411.706 836.229 404.356 836.229 395.289C836.229 386.222 828.878 378.872 819.811 378.872C810.744 378.872 803.394 386.222 803.394 395.289C803.394 404.356 810.744 411.706 819.811 411.706Z" fill="#0060FE"/>
<path d="M870.236 541.872C879.303 541.872 886.653 534.521 886.653 525.454C886.653 516.387 879.303 509.037 870.236 509.037C861.169 509.037 853.819 516.387 853.819 525.454C853.819 534.521 861.169 541.872 870.236 541.872Z" fill="#E6E6E6"/>
<path d="M366 133.412C366 132.13 364.9 131.072 363.496 131.004C362.092 130.935 360.875 131.88 360.725 133.155C360.575 134.43 361.544 135.589 362.932 135.794V140.506C362.492 140.345 362.027 140.245 361.554 140.207V139.798C361.553 138.522 360.419 137.488 359.02 137.487H354.392V135.951C354.391 135.384 353.888 134.924 353.266 134.924H349.67V133.426C349.67 133.213 349.481 133.041 349.247 133.041C349.014 133.041 348.825 133.213 348.825 133.426V134.924H345.288C344.667 134.924 344.163 135.384 344.162 135.951V137.487H339.534C338.135 137.488 337.002 138.522 337 139.798V149.46C337.002 150.736 338.135 151.77 339.534 151.771H359.02C360.419 151.77 361.553 150.736 361.554 149.46V149.051C363.625 148.887 365.354 147.542 365.856 145.702C366.358 143.862 365.522 141.935 363.777 140.905V135.794C365.057 135.603 365.998 134.595 366 133.412V133.412ZM345.007 135.951C345.007 135.809 345.133 135.694 345.288 135.694H353.266C353.421 135.694 353.547 135.809 353.547 135.951V137.487H345.007V135.951ZM360.71 149.46C360.709 150.311 359.953 151 359.02 151.001H339.534C338.601 151 337.846 150.311 337.845 149.46V139.798C337.846 138.947 338.601 138.258 339.534 138.257H359.02C359.953 138.258 360.709 138.947 360.71 139.798V149.46ZM365.155 144.629C365.153 146.506 363.6 148.079 361.554 148.278V140.98C363.6 141.179 365.153 142.753 365.155 144.629V144.629ZM361.554 133.412C361.554 132.506 362.36 131.771 363.355 131.771C364.349 131.771 365.155 132.506 365.155 133.412C365.155 134.319 364.349 135.054 363.355 135.054C362.361 135.053 361.555 134.319 361.554 133.412Z" fill="#0060FE"/>
<path d="M342.895 142.318C341.885 142.319 341.066 143.066 341.065 143.987V145.057C341.065 145.27 341.255 145.442 341.488 145.442H344.303C344.536 145.442 344.726 145.27 344.726 145.057V143.987C344.724 143.066 343.906 142.319 342.895 142.318ZM343.881 144.672H341.91V143.987C341.91 143.491 342.351 143.088 342.895 143.088C343.44 143.088 343.881 143.491 343.881 143.987V144.672Z" fill="#0060FE"/>
<path d="M355.659 142.318C354.648 142.319 353.83 143.066 353.829 143.987V145.057C353.829 145.27 354.018 145.442 354.251 145.442H357.066C357.3 145.442 357.489 145.27 357.489 145.057V143.987C357.487 143.066 356.669 142.319 355.659 142.318ZM356.644 144.672H354.673V143.987C354.673 143.491 355.114 143.088 355.659 143.088C356.203 143.088 356.644 143.491 356.644 143.987V144.672Z" fill="#0060FE"/>
<path d="M352.093 146.721H346.462C346.228 146.721 346.039 146.894 346.039 147.106C346.039 148.737 347.489 150.059 349.277 150.059C351.065 150.059 352.515 148.737 352.515 147.106C352.515 146.894 352.326 146.721 352.093 146.721ZM349.277 149.289C348.119 149.288 347.127 148.531 346.921 147.492H351.633C351.427 148.531 350.436 149.288 349.277 149.289Z" fill="#0060FE"/>
<path d="M366 467.412C366 466.13 364.9 465.072 363.496 465.004C362.092 464.935 360.875 465.88 360.725 467.155C360.575 468.43 361.544 469.589 362.932 469.794V474.506C362.492 474.345 362.027 474.245 361.554 474.207V473.798C361.553 472.522 360.419 471.488 359.02 471.487H354.392V469.951C354.391 469.384 353.888 468.924 353.266 468.924H349.67V467.426C349.67 467.213 349.481 467.041 349.247 467.041C349.014 467.041 348.825 467.213 348.825 467.426V468.924H345.288C344.667 468.924 344.163 469.384 344.162 469.951V471.487H339.534C338.135 471.488 337.002 472.522 337 473.798V483.46C337.002 484.736 338.135 485.77 339.534 485.771H359.02C360.419 485.77 361.553 484.736 361.554 483.46V483.051C363.625 482.887 365.354 481.542 365.856 479.702C366.358 477.862 365.522 475.935 363.777 474.905V469.794C365.057 469.603 365.998 468.595 366 467.412V467.412ZM345.007 469.951C345.007 469.809 345.133 469.694 345.288 469.694H353.266C353.421 469.694 353.547 469.809 353.547 469.951V471.487H345.007V469.951ZM360.71 483.46C360.709 484.311 359.953 485 359.02 485.001H339.534C338.601 485 337.846 484.311 337.845 483.46V473.798C337.846 472.947 338.601 472.258 339.534 472.257H359.02C359.953 472.258 360.709 472.947 360.71 473.798V483.46ZM365.155 478.629C365.153 480.506 363.6 482.079 361.554 482.278V474.98C363.6 475.179 365.153 476.753 365.155 478.629V478.629ZM361.554 467.412C361.554 466.506 362.36 465.771 363.355 465.771C364.349 465.771 365.155 466.506 365.155 467.412C365.155 468.319 364.349 469.054 363.355 469.054C362.361 469.053 361.555 468.319 361.554 467.412Z" fill="#0060FE"/>
<path d="M342.895 476.318C341.885 476.319 341.066 477.066 341.065 477.987V479.057C341.065 479.27 341.255 479.442 341.488 479.442H344.303C344.536 479.442 344.726 479.27 344.726 479.057V477.987C344.724 477.066 343.906 476.319 342.895 476.318ZM343.881 478.672H341.91V477.987C341.91 477.491 342.351 477.088 342.895 477.088C343.44 477.088 343.881 477.491 343.881 477.987V478.672Z" fill="#0060FE"/>
<path d="M355.659 476.318C354.648 476.319 353.83 477.066 353.829 477.987V479.057C353.829 479.27 354.018 479.442 354.251 479.442H357.066C357.3 479.442 357.489 479.27 357.489 479.057V477.987C357.487 477.066 356.669 476.319 355.659 476.318ZM356.644 478.672H354.673V477.987C354.673 477.491 355.114 477.088 355.659 477.088C356.203 477.088 356.644 477.491 356.644 477.987V478.672Z" fill="#0060FE"/>
<path d="M352.093 480.721H346.462C346.228 480.721 346.039 480.894 346.039 481.107C346.039 482.737 347.489 484.059 349.277 484.059C351.065 484.059 352.515 482.737 352.515 481.107C352.515 480.894 352.326 480.721 352.093 480.721ZM349.277 483.289C348.119 483.288 347.127 482.531 346.921 481.492H351.633C351.427 482.531 350.436 483.288 349.277 483.289Z" fill="#0060FE"/>
<path d="M575 185.5C575 175.85 567.15 168 557.5 168C547.85 168 540 175.851 540 185.5C540 195.149 547.85 203 557.5 203C559.527 202.999 561.538 202.645 563.444 201.952L573.175 203.655C573.359 203.687 573.546 203.616 573.662 203.469C573.778 203.323 573.805 203.125 573.732 202.953L571.025 196.588C573.604 193.47 575.011 189.547 575 185.5V185.5ZM570.046 196.17C569.92 196.317 569.889 196.522 569.965 196.7L572.427 202.489L563.485 200.925C563.456 200.92 563.426 200.917 563.397 200.917C563.337 200.917 563.277 200.928 563.22 200.949C561.39 201.63 559.453 201.98 557.5 201.981C548.413 201.981 541.019 194.587 541.019 185.5C541.019 176.413 548.413 169.019 557.5 169.019C566.587 169.019 573.981 176.413 573.981 185.5C573.991 189.413 572.594 193.2 570.046 196.17V196.17Z" fill="#3E84F7"/>
<path d="M570.017 179.232C570.017 177.97 569.041 176.922 567.782 176.832C566.523 176.742 565.409 177.641 565.23 178.89C565.051 180.14 565.868 181.315 567.101 181.583V183.936C566.803 183.834 566.496 183.765 566.183 183.731C565.934 182.259 564.66 181.18 563.167 181.178H560.117V179.891C560.116 179.278 559.619 178.781 559.006 178.78H556.089V177.529C556.089 177.247 555.86 177.019 555.579 177.019C555.298 177.019 555.069 177.247 555.069 177.529V178.78H552.202C551.589 178.781 551.093 179.278 551.092 179.891V181.177H548.042C546.353 181.179 544.985 182.548 544.983 184.236V191.778C544.985 193.466 546.353 194.834 548.042 194.836H563.167C564.66 194.834 565.934 193.755 566.183 192.282C567.977 192.087 569.458 190.792 569.891 189.04C570.324 187.288 569.617 185.452 568.121 184.443V181.583C569.226 181.342 570.015 180.363 570.017 179.232V179.232ZM552.112 179.891C552.112 179.867 552.121 179.843 552.138 179.826C552.155 179.809 552.178 179.8 552.202 179.8H559.006C559.056 179.8 559.097 179.84 559.097 179.891V181.177H552.112V179.891ZM563.167 193.817H548.042C546.916 193.816 546.004 192.903 546.003 191.778V184.236C546.004 183.111 546.916 182.198 548.042 182.197H563.167C564.292 182.198 565.204 183.111 565.206 184.236V191.778C565.204 192.903 564.292 193.815 563.167 193.817ZM568.997 188.007C568.995 189.622 567.82 190.997 566.225 191.249V184.765C567.82 185.018 568.995 186.392 568.997 188.007ZM566.225 179.232C566.225 178.466 566.846 177.846 567.611 177.846C568.377 177.846 568.997 178.467 568.997 179.232C568.997 179.998 568.377 180.618 567.611 180.618C566.846 180.617 566.226 179.997 566.225 179.232Z" fill="#3E84F7"/>
<path d="M550.172 185.696H550.15C549.212 185.697 548.452 186.457 548.451 187.395V188.407C548.451 188.689 548.679 188.917 548.96 188.917H551.362C551.643 188.917 551.871 188.689 551.871 188.407V187.395C551.87 186.457 551.11 185.697 550.172 185.696ZM550.852 187.898H549.47V187.395C549.47 187.02 549.774 186.716 550.15 186.715H550.172C550.548 186.716 550.852 187.02 550.852 187.395V187.898Z" fill="#3E84F7"/>
<path d="M561.059 185.696H561.036C560.098 185.697 559.338 186.457 559.337 187.395V188.407C559.337 188.689 559.565 188.917 559.846 188.917H562.248C562.529 188.917 562.758 188.689 562.758 188.407V187.395C562.757 186.457 561.996 185.697 561.059 185.696ZM561.738 187.898H560.356V187.395C560.357 187.02 560.661 186.716 561.036 186.715H561.059C561.434 186.716 561.738 187.02 561.738 187.395V187.898Z" fill="#3E84F7"/>
<path d="M558.005 189.814H553.203C552.921 189.814 552.693 190.043 552.693 190.324V190.347C552.695 191.941 553.987 193.234 555.582 193.235H555.627C557.221 193.234 558.513 191.941 558.515 190.347V190.324C558.515 190.043 558.287 189.814 558.005 189.814ZM555.627 192.216H555.582C554.737 192.215 553.998 191.649 553.777 190.834H557.432C557.21 191.649 556.471 192.215 555.627 192.216Z" fill="#3E84F7"/>
</g>
<defs>
<clipPath id="clip0">
<rect width="886.653" height="655.061" fill="white"/>
</clipPath>
</defs>
</svg>
