<svg width="191" height="42" viewBox="0 0 191 42" fill="none" xmlns="http://www.w3.org/2000/svg">
<path d="M55.9995 4.78895C55.9995 2.24391 53.8758 0.142874 51.1648 0.00698604C48.4538 -0.1294 46.1028 1.74665 45.8129 4.27775C45.5235 6.80835 47.3961 9.10949 50.0763 9.51566V18.87C49.2252 18.551 48.3285 18.3514 47.4152 18.2777V17.4644C47.4121 14.9323 45.223 12.88 42.5221 12.877H33.5847V9.82776C33.5831 8.70232 32.6105 7.79043 31.41 7.78894H24.4658V4.81583C24.4658 4.39323 24.1005 4.05127 23.6503 4.05127C23.2 4.05127 22.8348 4.39323 22.8348 4.81583V7.78894H16.0052C14.8048 7.79043 13.8321 8.70232 13.8305 9.82776V12.877H4.89316C2.19226 12.88 0.00318565 14.9323 0 17.4644V36.6455C0.00318565 39.1776 2.19226 41.2298 4.89316 41.2328H42.5221C45.223 41.2298 47.4121 39.1776 47.4152 36.6455V35.8321C51.4143 35.5076 54.7518 32.8366 55.7213 29.1846C56.6908 25.5325 55.0778 21.7068 51.7074 19.663V9.51566C54.1795 9.13786 55.9963 7.13737 55.9995 4.78895ZM15.4616 9.82776C15.4621 9.54652 15.7053 9.31855 16.0052 9.31805H31.41C31.71 9.31805 31.9537 9.54602 31.9537 9.82776V12.877H15.4616V9.82776ZM45.7842 36.6455C45.7821 38.3339 44.3225 39.7017 42.5221 39.7037H4.89316C3.09221 39.7017 1.63318 38.3339 1.63105 36.6455V17.4644C1.63318 15.776 3.09221 14.4081 4.89316 14.4061H42.5221C44.3225 14.4081 45.7821 15.776 45.7842 17.4644V36.6455ZM54.3685 27.0547C54.3637 30.7799 51.366 33.9028 47.4152 34.2985V19.8113C51.3655 20.207 54.3637 23.3299 54.3685 27.0547ZM47.4152 4.78895C47.4152 2.98906 48.9714 1.52963 50.8919 1.52963C52.8117 1.52963 54.3685 2.98906 54.3685 4.78895C54.3685 6.58934 52.8117 8.04827 50.8919 8.04827C48.9725 8.04628 47.4174 6.58835 47.4152 4.78895Z" fill="#ffff"/>
<path d="M11.3839 22.4673C9.43325 22.4698 7.8521 23.9516 7.84998 25.7804V27.9043C7.84998 28.3269 8.21526 28.6689 8.6655 28.6689H14.1024C14.5526 28.6689 14.9179 28.3269 14.9179 27.9043V25.7804C14.9158 23.9516 13.3346 22.4698 11.3839 22.4673ZM13.2868 27.1398H9.48103V25.7804C9.48103 24.7953 10.3332 23.9964 11.3839 23.9964C12.4347 23.9964 13.2868 24.7953 13.2868 25.7804V27.1398Z" fill="#ffff"/>
<path d="M36.0313 22.4673C34.0801 22.4698 32.4994 23.9516 32.4973 25.7804V27.9043C32.4973 28.3269 32.8621 28.6689 33.3128 28.6689H38.7497C39.1999 28.6689 39.5652 28.3269 39.5652 27.9043V25.7804C39.5626 23.9516 37.9819 22.4698 36.0313 22.4673ZM37.9342 27.1398H34.1284V25.7804C34.1284 24.7953 34.98 23.9964 36.0313 23.9964C37.082 23.9964 37.9342 24.7953 37.9342 25.7804V27.1398Z" fill="#ffff"/>
<path d="M29.1445 31.2084H18.2708C17.82 31.2084 17.4552 31.5509 17.4552 31.973C17.4552 35.2104 20.2544 37.8346 23.7076 37.8346C27.1603 37.8346 29.96 35.2104 29.96 31.973C29.96 31.5509 29.5947 31.2084 29.1445 31.2084ZM23.7076 36.3055C21.4707 36.303 19.5562 34.8013 19.158 32.7375H28.2567C27.859 34.8013 25.9445 36.303 23.7076 36.3055Z" fill="#ffff"/>
<path d="M78.4886 20.9091H75.8892V20.0312C75.8892 19.1449 76.2472 18.625 77.3125 18.625C77.7472 18.625 78.1903 18.7188 78.4801 18.8125L79.1193 16.0852C78.6676 15.9489 77.6705 15.7273 76.554 15.7273C74.0909 15.7273 72.2585 17.1165 72.2585 19.9631V20.9091H70.4091V23.6364H72.2585V34H75.8892V23.6364H78.4886V20.9091ZM86.1527 34.2557C90.1243 34.2557 92.5959 31.5369 92.5959 27.5057C92.5959 23.4489 90.1243 20.7386 86.1527 20.7386C82.1811 20.7386 79.7095 23.4489 79.7095 27.5057C79.7095 31.5369 82.1811 34.2557 86.1527 34.2557ZM86.1697 31.4432C84.3374 31.4432 83.3999 29.7642 83.3999 27.4801C83.3999 25.196 84.3374 23.5085 86.1697 23.5085C87.968 23.5085 88.9055 25.196 88.9055 27.4801C88.9055 29.7642 87.968 31.4432 86.1697 31.4432ZM94.9567 34H98.5874V26.5938C98.5874 24.983 99.7635 23.875 101.366 23.875C101.869 23.875 102.559 23.9602 102.9 24.071V20.8494C102.576 20.7727 102.124 20.7216 101.758 20.7216C100.292 20.7216 99.0902 21.5739 98.6129 23.1932H98.4766V20.9091H94.9567V34ZM104.777 34H108.408V26.142C108.408 24.6932 109.328 23.7301 110.538 23.7301C111.732 23.7301 112.533 24.5483 112.533 25.8352V34H116.053V26.0057C116.053 24.6506 116.828 23.7301 118.149 23.7301C119.308 23.7301 120.178 24.4545 120.178 25.9119V34H123.8V25.196C123.8 22.358 122.112 20.7386 119.675 20.7386C117.757 20.7386 116.266 21.7188 115.729 23.2188H115.592C115.175 21.7017 113.837 20.7386 112.038 20.7386C110.274 20.7386 108.936 21.6761 108.391 23.2188H108.237V20.9091H104.777V34ZM133.043 20.9091H130.358V17.7727H127.81V20.9091H125.892V22.9545H127.81V30.6847C127.801 33.0625 129.616 34.2131 131.628 34.1705C132.438 34.1619 132.983 34.0085 133.281 33.8977L132.821 31.7926C132.651 31.8267 132.335 31.9034 131.926 31.9034C131.099 31.9034 130.358 31.6307 130.358 30.1562V22.9545H133.043V20.9091ZM141.363 34.2642C144.218 34.2642 146.238 32.858 146.817 30.7273L144.406 30.2926C143.945 31.5284 142.837 32.1591 141.388 32.1591C139.207 32.1591 137.741 30.7443 137.673 28.2216H146.979V27.3182C146.979 22.5881 144.15 20.7386 141.184 20.7386C137.536 20.7386 135.133 23.517 135.133 27.5398C135.133 31.6051 137.502 34.2642 141.363 34.2642ZM137.681 26.3125C137.783 24.4545 139.13 22.8438 141.201 22.8438C143.178 22.8438 144.474 24.3097 144.482 26.3125H137.681ZM155.321 34.2642C158.415 34.2642 160.418 32.4062 160.699 29.858H158.219C157.895 31.2727 156.795 32.108 155.338 32.108C153.182 32.108 151.793 30.3097 151.793 27.4545C151.793 24.6506 153.207 22.8864 155.338 22.8864C156.957 22.8864 157.946 23.9091 158.219 25.1364H160.699C160.426 22.4943 158.27 20.7386 155.295 20.7386C151.605 20.7386 149.219 23.517 149.219 27.5142C149.219 31.4602 151.52 34.2642 155.321 34.2642ZM165.972 26.2273C165.972 24.1392 167.293 22.946 169.109 22.946C170.864 22.946 171.913 24.0625 171.913 25.9801V34H174.461V25.6733C174.461 22.4091 172.671 20.7386 169.978 20.7386C167.941 20.7386 166.714 21.625 166.1 23.0398H165.938V16.5455H163.424V34H165.972V26.2273Z" fill="#ffff"/>
</svg>
