<svg width="903" height="749" viewBox="0 0 903 749" fill="none" xmlns="http://www.w3.org/2000/svg">
<path d="M644.799 169.558H638.385C637.12 169.558 636.095 170.583 636.095 171.848V257.872C636.095 259.137 637.12 260.162 638.385 260.162H644.799C646.064 260.162 647.089 259.137 647.089 257.872V171.848C647.089 170.583 646.064 169.558 644.799 169.558Z" fill="#3F3D56"/>
<path d="M603.036 0H313.238C291.704 0 274.248 17.4564 274.248 38.99V708.465C274.248 729.999 291.704 747.455 313.238 747.455H603.036C624.57 747.455 642.026 729.999 642.026 708.465V38.99C642.026 17.4564 624.57 0 603.036 0Z" fill="#3F3D56"/>
<path d="M590.837 19.469H548.649V24.544C548.649 27.703 548.027 30.831 546.817 33.7494C545.608 36.6678 543.836 39.3192 541.601 41.5524C539.367 43.7855 536.715 45.5565 533.796 46.7643C530.877 47.972 527.748 48.5927 524.589 48.591H390.42C387.261 48.5927 384.133 47.972 381.214 46.7643C378.295 45.5565 375.642 43.7855 373.408 41.5524C371.174 39.3192 369.401 36.6678 368.192 33.7494C366.983 30.831 366.36 27.703 366.36 24.544V19.469H326.86C319.113 19.469 311.684 22.5464 306.206 28.0241C300.728 33.5019 297.651 40.9313 297.651 48.678V698.828C297.651 706.575 300.728 714.004 306.206 719.482C311.684 724.96 319.113 728.037 326.86 728.037H590.837C598.584 728.037 606.013 724.96 611.491 719.482C616.969 714.004 620.046 706.575 620.046 698.828V48.728C620.053 44.888 619.302 41.0844 617.837 37.5348C616.372 33.9853 614.222 30.7594 611.509 28.0418C608.796 25.3242 605.574 23.1682 602.026 21.6972C598.479 20.2262 594.677 19.469 590.837 19.469V19.469Z" fill="white"/>
<path d="M470.149 22.322H426.532C424.395 22.322 422.662 24.0547 422.662 26.192V28.875C422.662 31.0124 424.395 32.745 426.532 32.745H470.149C472.286 32.745 474.019 31.0124 474.019 28.875V26.192C474.019 24.0547 472.286 22.322 470.149 22.322Z" fill="#E6E8EC"/>
<path d="M487.706 33.453C490.975 33.453 493.625 30.803 493.625 27.534C493.625 24.265 490.975 21.615 487.706 21.615C484.437 21.615 481.787 24.265 481.787 27.534C481.787 30.803 484.437 33.453 487.706 33.453Z" fill="#E6E8EC"/>
<path d="M460.383 452.477C498.807 452.477 529.956 421.328 529.956 382.904C529.956 344.48 498.807 313.331 460.383 313.331C421.959 313.331 390.81 344.48 390.81 382.904C390.81 421.328 421.959 452.477 460.383 452.477Z" fill="white"/>
<path d="M551.891 373.189C551.89 391.58 546.436 409.558 536.218 424.849C526 440.141 511.477 452.059 494.486 459.096C477.494 466.133 458.798 467.974 440.76 464.386C422.723 460.797 406.154 451.94 393.15 438.936C380.146 425.931 371.291 409.362 367.703 391.324C364.116 373.286 365.958 354.59 372.996 337.599C380.035 320.608 391.954 306.086 407.246 295.868C422.538 285.651 440.516 280.198 458.907 280.199C471.118 280.199 483.21 282.605 494.491 287.278C505.773 291.952 516.024 298.801 524.658 307.436C533.292 316.071 540.141 326.322 544.814 337.604C549.487 348.886 551.891 360.978 551.891 373.189ZM448.158 422.409L517.135 353.432C517.693 352.875 518.136 352.214 518.438 351.486C518.741 350.758 518.896 349.977 518.896 349.188C518.896 348.4 518.741 347.619 518.438 346.891C518.136 346.163 517.693 345.502 517.135 344.945L508.648 336.52C508.092 335.962 507.432 335.519 506.705 335.217C505.978 334.915 505.198 334.76 504.411 334.76C503.623 334.76 502.843 334.915 502.116 335.217C501.389 335.519 500.729 335.962 500.173 336.52L443.915 392.779L417.647 366.449C416.519 365.328 414.994 364.698 413.403 364.698C411.813 364.698 410.288 365.328 409.16 366.449L400.673 374.986C399.552 376.114 398.922 377.639 398.922 379.229C398.922 380.82 399.552 382.345 400.673 383.473L439.673 422.459C440.23 423.017 440.891 423.46 441.619 423.762C442.347 424.065 443.128 424.22 443.916 424.22C444.705 424.22 445.486 424.065 446.214 423.762C446.942 423.46 447.603 423.017 448.16 422.459L448.158 422.409Z" fill="#0060FE"/>
<path d="M285.763 147.357H284.8C283.536 147.357 282.51 148.382 282.51 149.647V171.88C282.51 173.145 283.536 174.17 284.8 174.17H285.763C287.028 174.17 288.053 173.145 288.053 171.88V149.647C288.053 148.382 287.028 147.357 285.763 147.357Z" fill="#3F3D56"/>
<path d="M286.265 196.454H284.599C283.334 196.454 282.309 197.479 282.309 198.744V240.83C282.309 242.095 283.334 243.12 284.599 243.12H286.265C287.53 243.12 288.555 242.095 288.555 240.83V198.744C288.555 197.479 287.53 196.454 286.265 196.454Z" fill="#3F3D56"/>
<path d="M286.064 259.449H284.699C283.434 259.449 282.409 260.474 282.409 261.739V304.226C282.409 305.491 283.434 306.516 284.699 306.516H286.064C287.329 306.516 288.354 305.491 288.354 304.226V261.739C288.354 260.474 287.329 259.449 286.064 259.449Z" fill="#3F3D56"/>
<path d="M208.741 383.91C208.9 384.064 209.104 384.162 209.323 384.19C209.542 384.218 209.765 384.175 209.957 384.066C209.547 384.072 209.137 384.02 208.741 383.91Z" fill="url(#paint0_linear)"/>
<path d="M254.704 401.889L253.504 408.425L252.578 413.425L250.894 422.571L234.565 434.003C234.565 434.003 233.093 432.743 230.665 430.757C223.973 425.247 209.908 414.027 199.58 408.004C196.924 406.311 194.049 404.987 191.036 404.067L254.704 401.889Z" fill="#FEB9B9"/>
<path d="M242.725 406.752C242.725 406.752 261.764 410.02 262.879 401.889C263.994 393.758 253.079 389.364 243.829 388.817C234.579 388.27 179.061 392.085 179.061 392.085C179.061 392.085 169.268 405.146 204.636 407.332L242.725 406.752Z" fill="#3F3D56"/>
<path d="M284.361 138.445H184.761V256.549H284.361V138.445Z" fill="#2F2E41"/>
<path opacity="0.1" d="M284.361 138.981H184.761V257.085H284.361V138.981Z" fill="black"/>
<path d="M68.0302 340.623C66.3902 341.036 64.2942 342.623 61.9632 344.917C51.9252 354.855 37.5481 378.177 37.5481 378.177C19.1671 356.282 39.5071 338.983 48.1771 333.038C50.2851 331.599 51.7011 330.807 51.7011 330.807L68.0302 340.623Z" fill="#FEB9B9"/>
<path d="M253.611 175.72C253.611 175.72 258.511 210.006 275.382 218.17C292.253 226.334 253.611 241.592 253.611 241.592L200.822 221.984C200.822 221.984 230.758 212.184 224.768 183.337L253.611 175.72Z" fill="#FEB9B9"/>
<path d="M197.008 381.991L195.814 388.505L194.844 393.524L193.16 402.67L176.831 414.091C176.831 414.091 175.359 412.842 172.931 410.857C166.239 405.347 152.175 394.127 141.831 388.104C139.176 386.409 136.301 385.084 133.287 384.167L197.008 381.991Z" fill="#FEB9B9"/>
<path d="M182.883 390.024C182.883 390.024 199.97 390.145 200.998 381.991C202.026 373.837 191.686 369.466 182.883 368.919C174.08 368.372 120.594 372.441 120.594 372.441C120.594 372.441 113.006 387.841 146.649 390.023L182.883 390.024Z" fill="#2F2E41"/>
<path d="M302.686 518.119C301.939 517.751 301.191 517.372 300.455 517.004L298.447 514.472L272.114 481.079V481.659C271.936 487.236 270.04 531.426 255.25 535.508C239.468 539.858 220.429 540.951 211.75 511.562C203.071 482.173 187.213 417.951 170.928 414.137L195.153 394.273C195.153 394.273 211.192 413.033 217.727 430.99C217.482 429.875 206.406 378.123 215.496 368.966H294.971C294.971 368.966 307.24 403.91 315.649 421.22C322.196 434.66 332.022 466.436 338.349 487.94C344.612 509.174 322.606 527.923 302.686 518.119Z" fill="#3F3D56"/>
<path opacity="0.1" d="M300.422 378.723C288.153 385.984 234.293 383.028 216.771 381.846L211.997 381.5C211.484 381.5 212.075 381.21 212.075 381.21L212.566 376.269L225.627 343.076L295.559 302.522C294.142 306.794 293.674 313.33 293.786 320.814C294.109 344.861 300.422 378.723 300.422 378.723Z" fill="black"/>
<path d="M300.422 377.084C288.153 384.345 234.293 381.389 216.771 380.207L211.997 379.872L211.205 379.805L212.075 379.582L216.38 378.467L225.626 341.46L295.558 300.917C294.142 305.189 293.673 311.725 293.785 319.209C294.109 343.233 300.422 377.084 300.422 377.084Z" fill="#EFEFEF"/>
<path opacity="0.1" d="M293.741 319.186C279.52 322.465 248.224 332.086 236.2 355.323C228.181 370.793 221.433 377.429 216.726 380.206L211.952 379.871C211.983 379.776 212.009 379.679 212.03 379.581L216.335 378.466L225.581 341.459L295.513 300.917C294.113 305.166 293.629 311.702 293.741 319.186Z" fill="black"/>
<path opacity="0.1" d="M51.7012 330.831L68.0302 340.624C66.3902 341.037 64.2942 342.624 61.9632 344.918C60.6022 340.947 52.0632 335.404 48.1772 333.04C50.2842 331.623 51.7012 330.831 51.7012 330.831Z" fill="black"/>
<path opacity="0.1" d="M209.042 380.508C208.863 380.601 208.66 380.636 208.46 380.608C208.26 380.58 208.074 380.491 207.927 380.352C208.289 380.458 208.665 380.511 209.042 380.508V380.508Z" fill="black"/>
<path d="M245.994 215.995C245.994 215.995 231.294 217.623 220.955 206.738C220.955 206.738 177.455 219.263 162.723 247.559C147.991 275.855 47.8423 331.377 47.8423 331.377C47.8423 331.377 65.2643 341.17 63.6243 346.066L129.485 307.966C129.485 307.966 152.907 291.102 159.41 287.288C165.913 283.474 201.871 260.074 209.489 323.749C217.107 387.424 209.489 379.806 209.489 379.806C209.489 379.806 220.375 383.621 236.157 353.138C251.939 322.655 300.914 315.584 300.914 315.584L303.635 283.484C303.635 283.484 313.35 262.203 305.866 253.37C303.599 250.755 302.091 247.569 301.505 244.157C300.267 236.004 301.505 222.419 318.837 211.132C345.505 193.71 355.844 179.568 355.844 179.568C355.844 179.568 356.39 169.218 340.062 164.321C323.734 159.424 257.337 132.757 257.337 132.757L255.106 142.014L307.494 178.988C307.494 178.988 281.373 200.179 260.65 199.666C260.65 199.666 264.497 215.448 245.994 215.995Z" fill="#3E84F7"/>
<path opacity="0.1" d="M256.076 190.643C254.789 186.28 253.783 181.84 253.065 177.348L224.222 184.968C225.494 190.474 225.267 196.221 223.564 201.609C229.461 203.183 235.691 202.982 241.475 201.031C247.258 199.08 252.337 195.467 256.076 190.643V190.643Z" fill="black"/>
<path d="M232.119 201.028C249.25 201.028 263.137 187.141 263.137 170.01C263.137 152.879 249.25 138.992 232.119 138.992C214.988 138.992 201.101 152.879 201.101 170.01C201.101 187.141 214.988 201.028 232.119 201.028Z" fill="#FEB9B9"/>
<path opacity="0.1" d="M265.858 419.812C265.858 419.812 283.815 455.191 278.372 466.065Z" fill="black"/>
<path d="M248.614 98.3711C257.224 99.3531 265.4 103.044 273.877 105.063C275.996 105.722 278.251 105.806 280.413 105.308C283.703 104.293 286.38 100.847 289.793 100.947C291.893 101.014 293.752 102.442 295.481 103.813C298.253 105.935 300.863 108.262 303.288 110.773C309.132 117.119 312.757 125.663 318.088 132.567C323.419 139.471 331.022 147.567 338.595 144.401C333.443 164.477 317.374 177.036 299.117 178.286C291.834 178.786 284.372 177.271 277.323 179.401C275.567 180.121 273.713 180.572 271.823 180.739C267.763 180.739 264.495 177.014 261.963 173.389C256.029 164.868 251.334 155.198 244.653 147.424C242.422 144.848 239.846 142.405 236.723 141.937C233.6 141.469 230.734 142.963 227.957 144.402C223.373 146.778 218.689 149.231 215.131 153.325C211.573 157.419 209.331 163.463 210.803 168.94C211.595 171.907 213.403 174.584 213.435 177.684C213.502 182.636 209.13 186.25 208.271 191.068C208.077 193.092 208.006 195.126 208.059 197.158C207.68 203.758 203.359 209.158 198.859 213.319C197.097 214.925 195.159 216.665 194.643 219.152C194.297 220.858 194.643 222.652 194.42 224.383C193.762 228.666 189.49 230.841 185.709 231.399C181.291 232.053 176.779 231.518 172.637 229.849C177.924 227.349 181.181 220.235 179.954 213.866C178.27 205.032 169.392 198.686 170.154 189.697C170.571 186.939 171.399 184.259 172.608 181.745C174.543 176.888 175.949 171.836 176.802 166.677C177.471 162.695 177.795 158.468 176.545 154.665C175.43 151.207 173.099 148.453 171.124 145.53C168.448 141.554 166.335 137.226 164.845 132.67C164.305 131.319 164.099 129.857 164.245 128.409C164.692 126.699 165.645 125.164 166.978 124.003C171.83 118.903 177.016 113.608 183.519 112.147C186.622 111.632 189.777 111.512 192.91 111.79C198.359 111.961 203.813 111.73 209.227 111.098C213.688 110.574 221.227 110.641 225.009 107.752C228.533 105.052 230.519 101.662 234.857 99.9451C239.25 98.3167 243.973 97.777 248.62 98.3721L248.614 98.3711Z" fill="#2F2E41"/>
<path d="M824.962 745.598C849.812 745.598 869.957 742.191 869.957 737.989C869.957 733.787 849.812 730.38 824.962 730.38C800.112 730.38 779.967 733.787 779.967 737.989C779.967 742.191 800.112 745.598 824.962 745.598Z" fill="white"/>
<path d="M843.571 725.546C845.622 723.869 847.116 721.61 847.857 719.067C848.416 716.505 847.32 713.467 844.857 712.476C842.104 711.424 839.157 713.338 836.934 715.262C834.711 717.186 832.145 719.391 829.224 718.977C830.728 717.618 831.854 715.892 832.492 713.968C833.13 712.045 833.258 709.988 832.865 708C832.734 707.176 832.382 706.402 831.847 705.762C830.325 704.128 827.547 704.822 825.726 706.12C819.907 710.204 818.285 718.12 818.251 725.22C817.658 722.658 818.161 719.983 818.139 717.387C818.117 714.791 817.412 711.787 815.185 710.416C813.811 709.679 812.267 709.316 810.709 709.364C808.091 709.264 805.181 709.532 803.391 711.445C801.153 713.817 801.757 717.801 803.682 720.397C805.607 722.993 808.55 724.66 811.258 726.462C813.423 727.754 815.268 729.518 816.658 731.621C816.825 731.915 816.959 732.227 817.058 732.55H833.407C837.093 730.684 840.511 728.329 843.568 725.55L843.571 725.546Z" fill="white"/>
<path d="M213.212 748.956C229.612 748.956 242.906 746.708 242.906 743.934C242.906 741.161 229.612 738.912 213.212 738.912C196.813 738.912 183.518 741.161 183.518 743.934C183.518 746.708 196.813 748.956 213.212 748.956Z" fill="#EFEFEF"/>
<path d="M225.493 735.722C226.846 734.615 227.832 733.124 228.321 731.446C228.537 730.604 228.458 729.714 228.098 728.922C227.738 728.131 227.118 727.487 226.342 727.096C224.525 726.402 222.583 727.665 221.114 728.935C219.645 730.205 217.953 731.66 216.026 731.387C217.018 730.49 217.761 729.351 218.181 728.081C218.602 726.812 218.686 725.455 218.426 724.143C218.34 723.599 218.107 723.089 217.754 722.666C216.754 721.588 214.918 722.046 213.715 722.902C209.875 725.602 208.804 730.818 208.782 735.508C208.391 733.817 208.723 732.052 208.708 730.339C208.693 728.626 208.228 726.647 206.758 725.739C205.852 725.252 204.833 725.013 203.804 725.045C202.076 724.979 200.156 725.156 198.974 726.419C197.497 727.985 197.896 730.614 199.166 732.327C200.436 734.04 202.378 735.141 204.166 736.327C205.595 737.178 206.815 738.34 207.733 739.727C207.844 739.921 207.933 740.127 207.999 740.34H218.788C221.221 739.108 223.476 737.552 225.493 735.717V735.722Z" fill="#EFEFEF"/>
<path d="M45.2799 748.956C61.6795 748.956 74.9739 746.708 74.9739 743.934C74.9739 741.161 61.6795 738.912 45.2799 738.912C28.8804 738.912 15.5859 741.161 15.5859 743.934C15.5859 746.708 28.8804 748.956 45.2799 748.956Z" fill="#EFEFEF"/>
<path d="M57.5611 735.722C58.9143 734.615 59.9003 733.124 60.3891 731.446C60.6044 730.604 60.5256 729.714 60.1656 728.922C59.8057 728.131 59.1863 727.487 58.4101 727.096C56.5931 726.402 54.6511 727.665 53.1821 728.935C51.7131 730.205 50.0211 731.66 48.0941 731.387C49.086 730.49 49.8284 729.351 50.249 728.081C50.6696 726.812 50.7541 725.455 50.4941 724.143C50.4075 723.599 50.1753 723.089 49.8221 722.666C48.8221 721.588 46.9861 722.046 45.7831 722.902C41.9431 725.602 40.8721 730.818 40.8501 735.508C40.4591 733.817 40.7911 732.052 40.7761 730.339C40.7611 728.626 40.2961 726.647 38.8261 725.739C37.9194 725.252 36.9006 725.013 35.8721 725.045C34.1441 724.979 32.2241 725.156 31.0421 726.419C29.5651 727.985 29.9641 730.614 31.2341 732.327C32.5041 734.04 34.4461 735.141 36.2341 736.327C37.6633 737.178 38.8824 738.34 39.8011 739.727C39.9117 739.921 40.0009 740.127 40.0671 740.34H50.8561C53.2888 739.108 55.5441 737.552 57.5611 735.717V735.722Z" fill="#EFEFEF"/>
<path d="M902.567 746.088H0V747.909H902.567V746.088Z" fill="#BCD5FE"/>
<path d="M858.51 50.5241C858.51 50.5241 764.289 44.8391 775.39 110.861C775.39 110.861 773.152 122.532 783.76 127.825C783.76 127.825 783.928 122.935 793.428 124.602C796.81 125.163 800.247 125.328 803.667 125.094C808.281 124.791 812.672 122.996 816.177 119.98C816.177 119.98 842.664 109.036 852.959 65.7531C852.959 65.7531 860.579 56.3091 860.277 53.8801L844.377 60.6721C844.377 60.6721 849.815 72.1421 845.496 81.6721C845.496 81.6721 844.981 61.0821 841.926 61.5301C841.311 61.6201 833.668 65.5021 833.668 65.5021C833.668 65.5021 843.012 85.4761 835.962 100.002C835.962 100.002 838.636 75.3841 830.747 66.9461L819.557 73.4811C819.557 73.4811 830.479 94.1161 823.071 110.957C823.071 110.957 824.971 85.1301 817.196 75.0701L807.058 82.9811C807.058 82.9811 817.319 103.313 811.064 117.281C811.064 117.281 810.247 87.2241 804.864 84.9531C804.864 84.9531 795.99 92.7861 794.636 95.9861C794.636 95.9861 801.663 110.757 797.299 118.545C797.299 118.545 794.625 98.5151 792.431 98.4031C792.431 98.4031 783.591 111.674 782.673 120.783C782.673 120.783 783.054 107.254 790.293 97.1501C790.293 97.1501 781.744 98.6161 776.753 104.15C776.753 104.15 778.129 94.7731 792.475 93.9451C792.475 93.9451 799.782 83.8741 801.729 83.2701C801.729 83.2701 787.473 82.0701 778.823 85.9111C778.823 85.9111 786.432 77.0601 804.348 81.0881L814.363 72.9081C814.363 72.9081 795.586 70.3451 787.619 73.1771C787.619 73.1771 796.784 65.3441 817.06 71.0511L827.96 64.5381C827.96 64.5381 811.947 61.0911 802.413 62.3001C802.413 62.3001 812.484 56.8731 831.16 62.7591L838.993 59.2591C838.993 59.2591 827.266 56.9541 823.83 56.5851C820.394 56.2161 820.216 55.2761 820.216 55.2761C827.646 54.0373 835.273 54.8859 842.249 57.7271C842.249 57.7271 858.79 51.5651 858.51 50.5241Z" fill="white" fill-opacity="0.37"/>
<path d="M729.413 15.571C729.413 15.571 686.891 13.008 691.859 42.841C691.859 42.841 690.859 48.112 695.641 50.506C695.641 50.506 695.719 48.268 700.016 49.04C701.542 49.2969 703.093 49.3721 704.637 49.264C706.724 49.1258 708.709 48.3082 710.288 46.936V46.936C710.288 46.936 722.261 41.99 726.916 22.43C726.916 22.43 730.351 18.167 730.216 17.07L723.032 20.136C723.032 20.136 725.483 25.317 723.558 29.625C723.558 29.625 723.323 20.325 721.947 20.539C721.667 20.539 718.209 22.339 718.209 22.339C718.209 22.339 722.439 31.369 719.25 37.927C719.25 37.927 720.458 26.804 716.889 22.988L711.831 25.988C711.831 25.988 716.766 35.309 713.42 42.919C713.42 42.919 714.282 31.248 710.768 26.705L706.191 30.286C706.191 30.286 710.824 39.473 708.004 45.786C708.004 45.786 707.624 32.201 705.195 31.172C705.195 31.172 701.189 34.708 700.573 36.163C700.573 36.163 703.751 42.877 701.782 46.357C701.782 46.357 700.573 37.304 699.544 37.257C699.544 37.257 695.549 43.257 695.135 47.328C695.335 43.5302 696.523 39.8505 698.582 36.653C696.277 37.0897 694.149 38.1904 692.461 39.82C692.461 39.82 693.088 35.579 699.567 35.21C699.567 35.21 702.924 30.656 703.752 30.376C703.752 30.376 697.307 29.839 693.401 31.576C693.401 31.576 696.836 27.581 704.927 29.394L709.403 25.701C709.403 25.701 700.913 24.571 697.313 25.817C697.313 25.817 701.453 22.281 710.618 24.855L715.542 21.912C715.542 21.912 708.302 20.357 703.994 20.912C703.994 20.912 708.548 18.461 716.986 21.112L720.511 19.534C720.511 19.534 715.211 18.493 713.651 18.325C712.091 18.157 712.017 17.732 712.017 17.732C715.376 17.1732 718.825 17.5606 721.976 18.851C721.976 18.851 729.544 16.037 729.413 15.571Z" fill="white" fill-opacity="0.37"/>
<path d="M73.672 471.008C73.672 471.008 31.1501 468.445 36.1181 498.278C36.1181 498.278 35.1181 503.549 39.9001 505.943C39.9001 505.943 39.9781 503.705 44.2751 504.477C45.8011 504.734 47.3523 504.809 48.896 504.701C50.9834 504.563 52.9681 503.745 54.547 502.373V502.373C54.547 502.373 66.5201 497.427 71.1751 477.867C71.1751 477.867 74.6101 473.604 74.4751 472.507L67.2911 475.573C67.2911 475.573 69.7421 480.754 67.8171 485.062C67.8171 485.062 67.582 475.762 66.206 475.976C65.926 475.976 62.4681 477.776 62.4681 477.776C62.4681 477.776 66.6981 486.806 63.5091 493.364C63.5091 493.364 64.7171 482.241 61.1481 478.425L56.0901 481.425C56.0901 481.425 61.0251 490.746 57.6791 498.356C57.6791 498.356 58.5411 486.685 55.0271 482.142L50.4501 485.723C50.4501 485.723 55.083 494.91 52.263 501.223C52.263 501.223 51.8831 487.638 49.4541 486.609C49.4541 486.609 45.4481 490.145 44.8321 491.6C44.8321 491.6 48.0101 498.314 46.0411 501.794C46.0411 501.794 44.8321 492.741 43.8031 492.694C43.8031 492.694 39.8081 498.694 39.3941 502.765C39.5942 498.967 40.7823 495.288 42.841 492.09C40.5357 492.527 38.4082 493.627 36.7201 495.257C36.7201 495.257 37.3471 491.016 43.8261 490.647C43.8261 490.647 47.1831 486.093 48.0111 485.813C48.0111 485.813 41.5661 485.276 37.6601 487.013C37.6601 487.013 41.0951 483.018 49.1861 484.831L53.6621 481.138C53.6621 481.138 45.1721 480.008 41.5721 481.254C41.5721 481.254 45.7121 477.718 54.8771 480.292L59.8011 477.349C59.8011 477.349 52.5611 475.794 48.2531 476.349C48.2531 476.349 52.807 473.898 61.245 476.549L64.7701 474.971C64.7701 474.971 59.4701 473.93 57.9101 473.762C56.3501 473.594 56.276 473.169 56.276 473.169C59.6352 472.61 63.0837 472.998 66.2351 474.288C66.2351 474.288 73.803 471.474 73.672 471.008Z" fill="#FDFDFF" fill-opacity="0.37"/>
<path d="M422 91.7889C422 89.2439 419.876 87.1429 417.165 87.007C414.454 86.8706 412.103 88.7467 411.813 91.2778C411.524 93.8084 413.396 96.1095 416.076 96.5157V105.87C415.225 105.551 414.328 105.351 413.415 105.278V104.464C413.412 101.932 411.223 99.88 408.522 99.877H399.585V96.8278C399.583 95.7023 398.61 94.7904 397.41 94.7889H390.466V91.8158C390.466 91.3932 390.101 91.0513 389.65 91.0513C389.2 91.0513 388.835 91.3932 388.835 91.8158V94.7889H382.005C380.805 94.7904 379.832 95.7023 379.831 96.8278V99.877H370.893C368.192 99.88 366.003 101.932 366 104.464V123.645C366.003 126.178 368.192 128.23 370.893 128.233H408.522C411.223 128.23 413.412 126.178 413.415 123.645V122.832C417.414 122.508 420.752 119.837 421.721 116.185C422.691 112.533 421.078 108.707 417.707 106.663V96.5157C420.179 96.1379 421.996 94.1374 422 91.7889V91.7889ZM381.462 96.8278C381.462 96.5465 381.705 96.3185 382.005 96.3181H397.41C397.71 96.3181 397.954 96.546 397.954 96.8278V99.877H381.462V96.8278ZM411.784 123.645C411.782 125.334 410.323 126.702 408.522 126.704H370.893C369.092 126.702 367.633 125.334 367.631 123.645V104.464C367.633 102.776 369.092 101.408 370.893 101.406H408.522C410.323 101.408 411.782 102.776 411.784 104.464V123.645ZM420.368 114.055C420.364 117.78 417.366 120.903 413.415 121.299V106.811C417.365 107.207 420.364 110.33 420.368 114.055V114.055ZM413.415 91.7889C413.415 89.9891 414.971 88.5296 416.892 88.5296C418.812 88.5296 420.368 89.9891 420.368 91.7889C420.368 93.5893 418.812 95.0483 416.892 95.0483C414.973 95.0463 413.417 93.5883 413.415 91.7889Z" fill="#0060FE"/>
<path d="M377.384 109.467C375.433 109.47 373.852 110.952 373.85 112.78V114.904C373.85 115.327 374.215 115.669 374.666 115.669H380.102C380.553 115.669 380.918 115.327 380.918 114.904V112.78C380.916 110.952 379.335 109.47 377.384 109.467ZM379.287 114.14H375.481V112.78C375.481 111.795 376.333 110.996 377.384 110.996C378.435 110.996 379.287 111.795 379.287 112.78V114.14Z" fill="#0060FE"/>
<path d="M402.031 109.467C400.08 109.47 398.499 110.952 398.497 112.78V114.904C398.497 115.327 398.862 115.669 399.313 115.669H404.75C405.2 115.669 405.565 115.327 405.565 114.904V112.78C405.563 110.952 403.982 109.47 402.031 109.467ZM403.934 114.14H400.128V112.78C400.128 111.795 400.98 110.996 402.031 110.996C403.082 110.996 403.934 111.795 403.934 112.78V114.14Z" fill="#0060FE"/>
<path d="M395.145 118.208H384.271C383.82 118.208 383.455 118.551 383.455 118.973C383.455 122.21 386.254 124.835 389.708 124.835C393.16 124.835 395.96 122.21 395.96 118.973C395.96 118.551 395.595 118.208 395.145 118.208ZM389.708 123.306C387.471 123.303 385.556 121.801 385.158 119.738H394.257C393.859 121.801 391.945 123.303 389.708 123.306Z" fill="#0060FE"/>
<path d="M444.489 107.909H441.889V107.031C441.889 106.145 442.247 105.625 443.312 105.625C443.747 105.625 444.19 105.719 444.48 105.812L445.119 103.085C444.668 102.949 443.67 102.727 442.554 102.727C440.091 102.727 438.259 104.116 438.259 106.963V107.909H436.409V110.636H438.259V121H441.889V110.636H444.489V107.909ZM452.153 121.256C456.124 121.256 458.596 118.537 458.596 114.506C458.596 110.449 456.124 107.739 452.153 107.739C448.181 107.739 445.71 110.449 445.71 114.506C445.71 118.537 448.181 121.256 452.153 121.256ZM452.17 118.443C450.337 118.443 449.4 116.764 449.4 114.48C449.4 112.196 450.337 110.509 452.17 110.509C453.968 110.509 454.906 112.196 454.906 114.48C454.906 116.764 453.968 118.443 452.17 118.443ZM460.957 121H464.587V113.594C464.587 111.983 465.763 110.875 467.366 110.875C467.869 110.875 468.559 110.96 468.9 111.071V107.849C468.576 107.773 468.124 107.722 467.758 107.722C466.292 107.722 465.09 108.574 464.613 110.193H464.477V107.909H460.957V121ZM470.777 121H474.408V113.142C474.408 111.693 475.328 110.73 476.538 110.73C477.732 110.73 478.533 111.548 478.533 112.835V121H482.053V113.006C482.053 111.651 482.828 110.73 484.149 110.73C485.308 110.73 486.178 111.455 486.178 112.912V121H489.8V112.196C489.8 109.358 488.112 107.739 485.675 107.739C483.757 107.739 482.266 108.719 481.729 110.219H481.592C481.175 108.702 479.837 107.739 478.038 107.739C476.274 107.739 474.936 108.676 474.391 110.219H474.237V107.909H470.777V121ZM499.043 107.909H496.358V104.773H493.81V107.909H491.892V109.955H493.81V117.685C493.801 120.062 495.616 121.213 497.628 121.17C498.438 121.162 498.983 121.009 499.281 120.898L498.821 118.793C498.651 118.827 498.335 118.903 497.926 118.903C497.099 118.903 496.358 118.631 496.358 117.156V109.955H499.043V107.909ZM507.363 121.264C510.218 121.264 512.238 119.858 512.817 117.727L510.406 117.293C509.945 118.528 508.837 119.159 507.388 119.159C505.207 119.159 503.741 117.744 503.673 115.222H512.979V114.318C512.979 109.588 510.15 107.739 507.184 107.739C503.536 107.739 501.133 110.517 501.133 114.54C501.133 118.605 503.502 121.264 507.363 121.264ZM503.681 113.312C503.783 111.455 505.13 109.844 507.201 109.844C509.178 109.844 510.474 111.31 510.482 113.312H503.681ZM521.321 121.264C524.415 121.264 526.418 119.406 526.699 116.858H524.219C523.895 118.273 522.795 119.108 521.338 119.108C519.182 119.108 517.793 117.31 517.793 114.455C517.793 111.651 519.207 109.886 521.338 109.886C522.957 109.886 523.946 110.909 524.219 112.136H526.699C526.426 109.494 524.27 107.739 521.295 107.739C517.605 107.739 515.219 110.517 515.219 114.514C515.219 118.46 517.52 121.264 521.321 121.264ZM531.972 113.227C531.972 111.139 533.293 109.946 535.109 109.946C536.864 109.946 537.913 111.062 537.913 112.98V121H540.461V112.673C540.461 109.409 538.671 107.739 535.978 107.739C533.941 107.739 532.714 108.625 532.1 110.04H531.938V103.545H529.424V121H531.972V113.227Z" fill="#0060FE"/>
<defs>
<linearGradient id="paint0_linear" x1="209.355" y1="384.2" x2="209.355" y2="383.91" gradientUnits="userSpaceOnUse">
<stop stop-color="#808080" stop-opacity="0.251"/>
<stop offset="0.54" stop-color="#808080" stop-opacity="0.122"/>
<stop offset="1" stop-color="#808080" stop-opacity="0.102"/>
</linearGradient>
</defs>
</svg>
